# xmcd
#
# Track frame offsets:
#	150
#	20389
#	35424
#	45904
#	59008
#	71472
#	84613
#	99219
#	112207
#	125550
#	139223
#	155635
#	172493
#	185386
#	197354
#	211185
#
# Disc length: 2984 seconds
#
# Revision: 1
# Processed by: cddbd v1.4PL0 Copyright (c) Steve Scherf et al.
# Submitted via: audiograbber 1.82.01
#
DISCID=e30ba610
DTITLE=Joy Adams - Solid Ground
DYEAR=1995
DGENRE=Country
TTITLE0=Solid Ground
TTITLE1=According To The Lie
TTITLE2=Cowboy's Yodel
TTITLE3=Lace Covered Windows
TTITLE4=The Snorer
TTITLE5=Silver Dew On The Bluegrass Tonight
TTITLE6=Did I Tell You That I Love You 
TTITLE7=Voodoo Doll Of Betsy
TTITLE8=The Last Dance
TTITLE9=57 Chevrolet
TTITLE10=Best You'd Better Go
TTITLE11=Blue Misty Mountains
TTITLE12=One Size Fits All
TTITLE13=Still I Wonder
TTITLE14=Give Me One Good Reason
TTITLE15=This Little Light Of Mine
EXTD=
EXTT0=
EXTT1=
EXTT2=
EXTT3=
EXTT4=
EXTT5=
EXTT6=
EXTT7=
EXTT8=
EXTT9=
EXTT10=
EXTT11=
EXTT12=
EXTT13=
EXTT14=
EXTT15=
PLAYORDER=
